<svg width="1200" height="800" viewBox="0 0 1200 800" fill="none" xmlns="http://www.w3.org/2000/svg">
  <!-- Background -->
  <rect width="1200" height="800" fill="#1a1a1a"/>
  
  <!-- Header -->
  <rect x="0" y="0" width="1200" height="80" fill="#2d2d2d"/>
  <text x="60" y="45" font-family="Arial, sans-serif" font-size="24" font-weight="bold" fill="#FF8C00">Bitmap BRC-420 Indexer</text>
  
  <!-- Navigation -->
  <rect x="0" y="80" width="1200" height="60" fill="#333333"/>
  <text x="90" y="115" font-family="Arial, sans-serif" font-size="14" fill="#CCCCCC">Home</text>
  <rect x="160" y="95" width="100" height="30" rx="5" fill="#FF8C00"/>
  <text x="210" y="115" font-family="Arial, sans-serif" font-size="14" font-weight="bold" text-anchor="middle" fill="#FFFFFF">Bitmaps</text>
  <text x="320" y="115" font-family="Arial, sans-serif" font-size="14" fill="#CCCCCC">Parcels</text>
  
  <!-- Main Content Area -->
  <rect x="40" y="180" width="1120" height="580" rx="10" fill="#2a2a2a" stroke="#444444" stroke-width="2"/>
  
  <!-- Title -->
  <text x="80" y="220" font-family="Arial, sans-serif" font-size="32" font-weight="bold" fill="#FFFFFF">Bitcoin Bitmap Inscriptions</text>
  
  <!-- Grid of Bitmap Cards -->
  <!-- Row 1 -->
  <rect x="80" y="260" width="250" height="180" rx="8" fill="#333333" stroke="#555555" stroke-width="1"/>
  <rect x="90" y="270" width="230" height="120" rx="4" fill="#FF8C00" opacity="0.1"/>
  <text x="205" y="325" font-family="Arial, sans-serif" font-size="48" font-weight="bold" text-anchor="middle" fill="#FF8C00">#1</text>
  <text x="90" y="410" font-family="Arial, sans-serif" font-size="14" font-weight="bold" fill="#FFFFFF">Bitmap #1</text>
  <text x="90" y="430" font-family="Arial, sans-serif" font-size="12" fill="#CCCCCC">Block: 792,435</text>
  
  <rect x="350" y="260" width="250" height="180" rx="8" fill="#333333" stroke="#555555" stroke-width="1"/>
  <rect x="360" y="270" width="230" height="120" rx="4" fill="#00CC88" opacity="0.1"/>
  <text x="475" y="325" font-family="Arial, sans-serif" font-size="48" font-weight="bold" text-anchor="middle" fill="#00CC88">#42</text>
  <text x="360" y="410" font-family="Arial, sans-serif" font-size="14" font-weight="bold" fill="#FFFFFF">Bitmap #42</text>
  <text x="360" y="430" font-family="Arial, sans-serif" font-size="12" fill="#CCCCCC">Block: 794,521</text>
  
  <rect x="620" y="260" width="250" height="180" rx="8" fill="#333333" stroke="#555555" stroke-width="1"/>
  <rect x="630" y="270" width="230" height="120" rx="4" fill="#6666FF" opacity="0.1"/>
  <text x="745" y="325" font-family="Arial, sans-serif" font-size="48" font-weight="bold" text-anchor="middle" fill="#6666FF">#100</text>
  <text x="630" y="410" font-family="Arial, sans-serif" font-size="14" font-weight="bold" fill="#FFFFFF">Bitmap #100</text>
  <text x="630" y="430" font-family="Arial, sans-serif" font-size="12" fill="#CCCCCC">Block: 798,234</text>
  
  <rect x="890" y="260" width="250" height="180" rx="8" fill="#333333" stroke="#555555" stroke-width="1"/>
  <rect x="900" y="270" width="230" height="120" rx="4" fill="#FF4466" opacity="0.1"/>
  <text x="1015" y="325" font-family="Arial, sans-serif" font-size="48" font-weight="bold" text-anchor="middle" fill="#FF4466">#420</text>
  <text x="900" y="410" font-family="Arial, sans-serif" font-size="14" font-weight="bold" fill="#FFFFFF">Bitmap #420</text>
  <text x="900" y="430" font-family="Arial, sans-serif" font-size="12" fill="#CCCCCC">Block: 801,567</text>
  
  <!-- Row 2 -->
  <rect x="80" y="460" width="250" height="180" rx="8" fill="#333333" stroke="#555555" stroke-width="1"/>
  <rect x="90" y="470" width="230" height="120" rx="4" fill="#FFAA00" opacity="0.1"/>
  <text x="205" y="525" font-family="Arial, sans-serif" font-size="36" font-weight="bold" text-anchor="middle" fill="#FFAA00">#1337</text>
  <text x="90" y="610" font-family="Arial, sans-serif" font-size="14" font-weight="bold" fill="#FFFFFF">Bitmap #1337</text>
  <text x="90" y="630" font-family="Arial, sans-serif" font-size="12" fill="#CCCCCC">Block: 805,432</text>
  
  <rect x="350" y="460" width="250" height="180" rx="8" fill="#333333" stroke="#555555" stroke-width="1"/>
  <rect x="360" y="470" width="230" height="120" rx="4" fill="#AA00FF" opacity="0.1"/>
  <text x="475" y="525" font-family="Arial, sans-serif" font-size="36" font-weight="bold" text-anchor="middle" fill="#AA00FF">#2048</text>
  <text x="360" y="610" font-family="Arial, sans-serif" font-size="14" font-weight="bold" fill="#FFFFFF">Bitmap #2048</text>
  <text x="360" y="630" font-family="Arial, sans-serif" font-size="12" fill="#CCCCCC">Block: 808,901</text>
  
  <!-- Parcel indicators -->
  <circle cx="300" cy="280" r="8" fill="#00FF88"/>
  <text x="315" y="285" font-family="Arial, sans-serif" font-size="10" fill="#00FF88">12 parcels</text>
  
  <circle cx="570" cy="280" r="8" fill="#00FF88"/>
  <text x="585" y="285" font-family="Arial, sans-serif" font-size="10" fill="#00FF88">8 parcels</text>
  
  <!-- Pagination -->
  <text x="600" y="720" font-family="Arial, sans-serif" font-size="14" text-anchor="middle" fill="#CCCCCC">Page 1 of 47 • 1,856 total bitmaps</text>
</svg>
