<svg width="1200" height="800" viewBox="0 0 1200 800" fill="none" xmlns="http://www.w3.org/2000/svg">
  <!-- Background -->
  <rect width="1200" height="800" fill="#1a1a1a"/>
  
  <!-- Header -->
  <rect x="0" y="0" width="1200" height="80" fill="#2d2d2d"/>
  <text x="60" y="45" font-family="Arial, sans-serif" font-size="24" font-weight="bold" fill="#FF8C00">Bitmap BRC-420 Indexer</text>
  
  <!-- Navigation -->
  <rect x="0" y="80" width="1200" height="60" fill="#333333"/>
  <text x="90" y="115" font-family="Arial, sans-serif" font-size="14" fill="#CCCCCC">Home</text>
  <text x="200" y="115" font-family="Arial, sans-serif" font-size="14" fill="#CCCCCC">Bitmaps</text>
  <rect x="270" y="95" width="100" height="30" rx="5" fill="#FF8C00"/>
  <text x="320" y="115" font-family="Arial, sans-serif" font-size="14" font-weight="bold" text-anchor="middle" fill="#FFFFFF">Parcels</text>
  
  <!-- Main Content Area -->
  <rect x="40" y="180" width="1120" height="580" rx="10" fill="#2a2a2a" stroke="#444444" stroke-width="2"/>
  
  <!-- Title -->
  <text x="80" y="220" font-family="Arial, sans-serif" font-size="32" font-weight="bold" fill="#FFFFFF">Bitmap Parcel Explorer</text>
  
  <!-- Filter Bar -->
  <rect x="80" y="240" width="300" height="35" rx="17" fill="#3a3a3a" stroke="#555555" stroke-width="1"/>
  <text x="100" y="262" font-family="Arial, sans-serif" font-size="14" fill="#AAAAAA">Search parcels...</text>
  
  <rect x="400" y="240" width="120" height="35" rx="17" fill="#444444" stroke="#666666" stroke-width="1"/>
  <text x="460" y="262" font-family="Arial, sans-serif" font-size="14" text-anchor="middle" fill="#CCCCCC">All Status</text>
  
  <rect x="540" y="240" width="120" height="35" rx="17" fill="#444444" stroke="#666666" stroke-width="1"/>
  <text x="600" y="262" font-family="Arial, sans-serif" font-size="14" text-anchor="middle" fill="#CCCCCC">All Bitmaps</text>
  
  <!-- Parcel Grid -->
  <!-- Row 1 -->
  <rect x="80" y="300" width="340" height="120" rx="8" fill="#333333" stroke="#555555" stroke-width="1"/>
  <circle cx="110" cy="330" r="8" fill="#00FF88"/>
  <text x="130" y="325" font-family="Arial, sans-serif" font-size="14" font-weight="bold" fill="#FFFFFF">Parcel 1.42.bitmap</text>
  <text x="130" y="345" font-family="Arial, sans-serif" font-size="12" fill="#CCCCCC">Parent: Bitmap #42</text>
  <text x="130" y="365" font-family="Arial, sans-serif" font-size="12" fill="#00FF88">✓ Valid • Block 798,543</text>
  <text x="130" y="385" font-family="Arial, sans-serif" font-size="12" fill="#AAAAAA">Inscription: a1b2c3d4e5f6...</text>
  <rect x="350" y="390" width="60" height="20" rx="10" fill="#00FF88" opacity="0.2"/>
  <text x="380" y="403" font-family="Arial, sans-serif" font-size="10" text-anchor="middle" fill="#00FF88">VALID</text>
  
  <rect x="440" y="300" width="340" height="120" rx="8" fill="#333333" stroke="#555555" stroke-width="1"/>
  <circle cx="470" cy="330" r="8" fill="#FF6B00"/>
  <text x="490" y="325" font-family="Arial, sans-serif" font-size="14" font-weight="bold" fill="#FFFFFF">Parcel 5.100.bitmap</text>
  <text x="490" y="345" font-family="Arial, sans-serif" font-size="12" fill="#CCCCCC">Parent: Bitmap #100</text>
  <text x="490" y="365" font-family="Arial, sans-serif" font-size="12" fill="#FF6B00">⚠ Pending • Block 802,167</text>
  <text x="490" y="385" font-family="Arial, sans-serif" font-size="12" fill="#AAAAAA">Inscription: f6e5d4c3b2a1...</text>
  <rect x="710" y="390" width="60" height="20" rx="10" fill="#FF6B00" opacity="0.2"/>
  <text x="740" y="403" font-family="Arial, sans-serif" font-size="10" text-anchor="middle" fill="#FF6B00">PENDING</text>
  
  <rect x="800" y="300" width="340" height="120" rx="8" fill="#333333" stroke="#555555" stroke-width="1"/>
  <circle cx="830" cy="330" r="8" fill="#FF4466"/>
  <text x="850" y="325" font-family="Arial, sans-serif" font-size="14" font-weight="bold" fill="#FFFFFF">Parcel 1.42.bitmap</text>
  <text x="850" y="345" font-family="Arial, sans-serif" font-size="12" fill="#CCCCCC">Parent: Bitmap #42</text>
  <text x="850" y="365" font-family="Arial, sans-serif" font-size="12" fill="#FF4466">✗ Invalid • Block 798,601</text>
  <text x="850" y="385" font-family="Arial, sans-serif" font-size="12" fill="#AAAAAA">Inscription: deadbeefcafe...</text>
  <rect x="1070" y="390" width="60" height="20" rx="10" fill="#FF4466" opacity="0.2"/>
  <text x="1100" y="403" font-family="Arial, sans-serif" font-size="10" text-anchor="middle" fill="#FF4466">INVALID</text>
  
  <!-- Row 2 -->
  <rect x="80" y="440" width="340" height="120" rx="8" fill="#333333" stroke="#555555" stroke-width="1"/>
  <circle cx="110" cy="470" r="8" fill="#00FF88"/>
  <text x="130" y="465" font-family="Arial, sans-serif" font-size="14" font-weight="bold" fill="#FFFFFF">Parcel 8.420.bitmap</text>
  <text x="130" y="485" font-family="Arial, sans-serif" font-size="12" fill="#CCCCCC">Parent: Bitmap #420</text>
  <text x="130" y="505" font-family="Arial, sans-serif" font-size="12" fill="#00FF88">✓ Valid • Block 805,921</text>
  <text x="130" y="525" font-family="Arial, sans-serif" font-size="12" fill="#AAAAAA">Inscription: cafebabe1234...</text>
  <rect x="350" y="530" width="60" height="20" rx="10" fill="#00FF88" opacity="0.2"/>
  <text x="380" y="543" font-family="Arial, sans-serif" font-size="10" text-anchor="middle" fill="#00FF88">VALID</text>
  
  <rect x="440" y="440" width="340" height="120" rx="8" fill="#333333" stroke="#555555" stroke-width="1"/>
  <circle cx="470" cy="470" r="8" fill="#00FF88"/>
  <text x="490" y="465" font-family="Arial, sans-serif" font-size="14" font-weight="bold" fill="#FFFFFF">Parcel 3.1337.bitmap</text>
  <text x="490" y="485" font-family="Arial, sans-serif" font-size="12" fill="#CCCCCC">Parent: Bitmap #1337</text>
  <text x="490" y="505" font-family="Arial, sans-serif" font-size="12" fill="#00FF88">✓ Valid • Block 809,456</text>
  <text x="490" y="525" font-family="Arial, sans-serif" font-size="12" fill="#AAAAAA">Inscription: 1234567890ab...</text>
  <rect x="710" y="530" width="60" height="20" rx="10" fill="#00FF88" opacity="0.2"/>
  <text x="740" y="543" font-family="Arial, sans-serif" font-size="10" text-anchor="middle" fill="#00FF88">VALID</text>
  
  <!-- Stats Panel -->
  <rect x="800" y="440" width="340" height="120" rx="8" fill="#444444" stroke="#666666" stroke-width="1"/>
  <text x="820" y="465" font-family="Arial, sans-serif" font-size="16" font-weight="bold" fill="#FFFFFF">Parcel Statistics</text>
  <text x="820" y="485" font-family="Arial, sans-serif" font-size="12" fill="#00FF88">Valid: 2,847 (89.2%)</text>
  <text x="820" y="505" font-family="Arial, sans-serif" font-size="12" fill="#FF6B00">Pending: 201 (6.3%)</text>
  <text x="820" y="525" font-family="Arial, sans-serif" font-size="12" fill="#FF4466">Invalid: 145 (4.5%)</text>
  <text x="820" y="545" font-family="Arial, sans-serif" font-size="12" fill="#CCCCCC">Total: 3,193 parcels</text>
  
  <!-- Pagination -->
  <text x="600" y="720" font-family="Arial, sans-serif" font-size="14" text-anchor="middle" fill="#CCCCCC">Page 1 of 128 • 3,193 total parcels</text>
</svg>
